<svg id="Layer_1" data-name="Layer 1" xmlns="http://www.w3.org/2000/svg" viewBox="0 0 113 113"><title>Artboard 1 copy</title><path d="M81.09,53,81,52.83H76.54V47.17a64.7,64.7,0,0,0-.18-7.87,16.92,16.92,0,0,0-4.75-9.44,19.48,19.48,0,0,0-5.59-4,21.23,21.23,0,0,0-8.23-2.11l-1.05,0c-.16,0-.7,0-1.2,0A20.94,20.94,0,0,0,41.36,30a17.1,17.1,0,0,0-4.74,9.54,67.79,67.79,0,0,0-.16,7.63v5.72H32l-.13.13-.13.13v36l.13.13.13.13H81l.11-.12.12-.12v-36Zm-11.16-.13H56.54l-13.39,0v-6c0-6.57,0-6.51.34-7.83a12.5,12.5,0,0,1,9.35-8.74,19.69,19.69,0,0,1,2.48-.42,24.75,24.75,0,0,1,2.58,0,14.45,14.45,0,0,1,7.74,3.06,16.59,16.59,0,0,1,1.87,1.88,11.2,11.2,0,0,1,2.36,5.59c0,.29.05,2.71.05,6.45Z"/></svg>