<svg id="Layer_1" data-name="Layer 1" xmlns="http://www.w3.org/2000/svg" viewBox="0 0 113 113"><title>Artboard 1 copy 2</title><rect x="20.84" y="46.59" width="31.54" height="10.49"/><rect x="60.61" y="46.59" width="31.54" height="10.49"/><path d="M25,86.17a7.53,7.53,0,0,0,7.53,7.53H52.39V61.43H25Z"/><path d="M60.61,93.7H80.43A7.53,7.53,0,0,0,88,86.17V61.43H60.61Z"/><path d="M60,42.17l10.57-.07c6.27,0,10.16-4.21,10.16-11S76,19.3,69.76,19.3A16.71,16.71,0,0,0,56.5,26.07,16.71,16.71,0,0,0,43.24,19.3c-6.27,0-11,5.08-11,11.82s3.89,11,10.16,11L53,42.17v0l3.51,0,3.51,0Zm9.75-15.85c2.93,0,4,2.58,4,4.79,0,3.32-1.15,4-3.14,4L60,35.15C60.1,32.5,63.51,26.32,69.76,26.32ZM42.41,35.08c-2,0-3.14-.65-3.14-4,0-2.21,1-4.79,4-4.79,6.25,0,9.66,6.18,9.75,8.83Z"/></svg>